# xmcd
#
# Track frame offsets: 
#        150
#        11631
#        22562
#        33940
#        43304
#        57050
#        67519
#        80705
#        91953
#        103307
#        115462
#
# Disc length: 1699 seconds
#
# Revision: 0
# Processed by: cddbd v1.5.2PL0 Copyright (c) Steve Scherf et al.
# Submitted via: ExactAudioCopy v0.95b3
#
DISCID=8106a10b
DTITLE=Every Mothers Son - Every Mothers Son
DYEAR=1900
DGENRE=
TTITLE0=Come And Take A Ride In My Boat
TTITLE1=I Won't
TTITLE2=For Brandy
TTITLE3=Didn't She Lie
TTITLE4=What Became Of Mary
TTITLE5=Ain't It A Drag
TTITLE6=Allison Dozer
TTITLE7=I Believe In You
TTITLE8=Ain't No Use
TTITLE9=Sittin' Here (Peter's Tune)
TTITLE10=Come On Queenie
EXTD=
EXTT0=
EXTT1=
EXTT2=
EXTT3=
EXTT4=
EXTT5=
EXTT6=
EXTT7=
EXTT8=
EXTT9=
EXTT10=
PLAYORDER=
